<svg width="14" height="17" viewBox="0 0 14 17" fill="none" xmlns="http://www.w3.org/2000/svg">
<path d="M13.771 11.2273C13.3703 10.5383 12.8921 9.22344 12.8921 6.875V6.37578C12.8921 3.10625 10.2695 0.427344 7.04213 0.40625H6.99994C6.22498 0.406248 5.45763 0.559118 4.74184 0.856108C4.02605 1.1531 3.37588 1.58837 2.82855 2.137C2.28123 2.68563 1.84751 3.33684 1.55222 4.05334C1.25694 4.76984 1.1059 5.53754 1.10775 6.3125V6.875C1.10775 9.22344 0.629625 10.5383 0.228843 11.2273C0.105985 11.4415 0.0413939 11.6842 0.041504 11.9311C0.0416142 12.1781 0.106422 12.4207 0.229471 12.6348C0.35252 12.8488 0.529516 13.027 0.742828 13.1514C0.95614 13.2757 1.19832 13.3421 1.44525 13.3438H3.92025C3.99354 14.1098 4.34966 14.821 4.9191 15.3385C5.48855 15.8561 6.23043 16.1429 6.99994 16.1429C7.76944 16.1429 8.51133 15.8561 9.08078 15.3385C9.65022 14.821 10.0063 14.1098 10.0796 13.3438H12.5546C12.8016 13.3421 13.0437 13.2757 13.2571 13.1514C13.4704 13.027 13.6474 12.8488 13.7704 12.6348C13.8935 12.4207 13.9583 12.1781 13.9584 11.9311C13.9585 11.6842 13.8939 11.4415 13.771 11.2273ZM6.99994 14.4688C6.67611 14.4675 6.36252 14.3551 6.11166 14.1503C5.86079 13.9455 5.68787 13.6608 5.62181 13.3438H8.37807C8.31201 13.6608 8.13908 13.9455 7.88822 14.1503C7.63736 14.3551 7.32377 14.4675 6.99994 14.4688ZM1.90931 11.6562C2.63353 10.1375 2.79525 8.24609 2.79525 6.875V6.3125C2.79247 5.75889 2.89922 5.2102 3.10937 4.69802C3.31951 4.18584 3.6289 3.72029 4.01971 3.32817C4.41052 2.93605 4.87504 2.62511 5.38652 2.41326C5.89799 2.2014 6.44632 2.09282 6.99994 2.09375H7.0351C9.33432 2.10781 11.2046 4.02734 11.2046 6.37578V6.875C11.2046 8.24609 11.3663 10.1375 12.0906 11.6562H1.90931Z" fill="white"/>
</svg>
