<svg width="17" height="12" viewBox="0 0 17 12" fill="none" xmlns="http://www.w3.org/2000/svg">
<path d="M16.4896 1.4375V5.9375C16.4896 6.16128 16.4007 6.37589 16.2425 6.53412C16.0843 6.69235 15.8696 6.78125 15.6459 6.78125C15.4221 6.78125 15.2075 6.69235 15.0493 6.53412C14.891 6.37589 14.8021 6.16128 14.8021 5.9375V3.47656L9.49353 8.78516C9.41514 8.86382 9.322 8.92623 9.21944 8.96881C9.11688 9.0114 9.00692 9.03332 8.89587 9.03332C8.78482 9.03332 8.67486 9.0114 8.57231 8.96881C8.46975 8.92623 8.3766 8.86382 8.29821 8.78516L6.08337 6.57031L1.61853 11.0352C1.45931 11.1923 1.24459 11.2804 1.02087 11.2804C0.797152 11.2804 0.582436 11.1923 0.423214 11.0352C0.344554 10.9568 0.282142 10.8636 0.239556 10.7611C0.19697 10.6585 0.175049 10.5485 0.175049 10.4375C0.175049 10.3265 0.19697 10.2165 0.239556 10.1139C0.282142 10.0114 0.344554 9.91823 0.423214 9.83984L5.48571 4.77734C5.5641 4.69868 5.65725 4.63627 5.75981 4.59369C5.86236 4.5511 5.97232 4.52918 6.08337 4.52918C6.19442 4.52918 6.30438 4.5511 6.40694 4.59369C6.5095 4.63627 6.60264 4.69868 6.68103 4.77734L8.89587 6.99219L13.6068 2.28125H11.1459C10.9221 2.28125 10.7075 2.19236 10.5493 2.03412C10.391 1.87589 10.3021 1.66128 10.3021 1.4375C10.3021 1.21372 10.391 0.999112 10.5493 0.840879C10.7075 0.682645 10.9221 0.59375 11.1459 0.59375H15.6459C15.8696 0.59375 16.0843 0.682645 16.2425 0.840879C16.4007 0.999112 16.4896 1.21372 16.4896 1.4375Z" fill="#4755A8"/>
</svg>
